<svg width="44" height="43" viewBox="0 0 44 43" fill="none" xmlns="http://www.w3.org/2000/svg">
<path d="M24.2384 8.43201L23.5319 7.72427L22.8242 8.43074L23.5306 9.13848L24.2384 8.43201ZM34.9838 19.1968L34.2761 19.9033L34.9826 20.611L35.6903 19.9045L34.9838 19.1968ZM25.6539 7.01907L26.3616 6.3126L25.6551 5.60485L24.9474 6.31133L25.6539 7.01907ZM36.3993 17.7838L37.1058 18.4916L37.8135 17.7851L37.1071 17.0774L36.3993 17.7838ZM34.1036 1.58703L34.8113 0.880539L34.8113 0.880539L34.1036 1.58703ZM31.2727 1.58703L31.9804 2.29351L31.9804 2.29351L31.2727 1.58703ZM41.8259 9.32284L42.5336 8.61635L41.8259 9.32284ZM41.8259 12.1488L41.1181 11.4423L41.1181 11.4423L41.8259 12.1488ZM16.9524 37.0658L17.6601 37.7723L17.6601 37.7723L16.9524 37.0658ZM16.7692 37.2494L17.0444 38.2108L17.2937 38.1394L17.4769 37.9559L16.7692 37.2494ZM16.5199 37.3208L16.795 38.2822L16.795 38.2822L16.5199 37.3208ZM3.73052 40.9813L4.00568 41.9427L4.00568 41.9427L3.73052 40.9813ZM2 41.4766L1.03835 41.2023L0.544652 42.9333L2.27516 42.438L2 41.4766ZM2.4937 39.7456L3.45535 40.0199L3.45535 40.0199L2.4937 39.7456ZM6.1478 26.9338L5.18614 26.6595L5.18614 26.6595L6.1478 26.9338ZM6.21881 26.6848L5.51108 25.9784L5.32817 26.1616L5.25716 26.4106L6.21881 26.6848ZM6.40172 26.5016L5.69399 25.7951L5.69399 25.7951L6.40172 26.5016ZM32.6881 3L33.3959 2.29351L32.6881 1.58455L31.9804 2.29351L32.6881 3ZM40.4104 10.7358L41.1181 11.4423L41.8234 10.7358L41.1181 10.0293L40.4104 10.7358ZM8.00009 27.7313L7.29236 27.0249L7.10945 27.2081L7.03844 27.4571L8.00009 27.7313ZM4.9107 38.5632L3.94905 38.2889L3.45535 40.0199L5.18586 39.5246L4.9107 38.5632ZM15.7202 35.4693L15.9954 36.4307L16.2447 36.3594L16.4279 36.1758L15.7202 35.4693ZM4.53832 35.344L3.83185 34.6362L3.1241 35.3427L3.83057 36.0505L4.53832 35.344ZM8.12013 38.9322L7.41239 39.6387L8.11886 40.3465L8.8266 39.64L8.12013 38.9322ZM5.9538 33.931L6.66154 33.2246L5.95507 32.5168L5.24733 33.2233L5.9538 33.931ZM9.53562 37.5193L10.2421 38.227L10.9498 37.5206L10.2434 36.8128L9.53562 37.5193ZM13.1175 31.7557L12.411 32.4634L13.1188 33.1699L13.8252 32.4622L13.1175 31.7557ZM27.4448 17.4027L28.1525 18.1091L28.859 17.4014L28.1512 16.6949L27.4448 17.4027ZM11.702 30.3428L10.9943 29.6363L10.2878 30.344L10.9955 31.0505L11.702 30.3428ZM26.0293 15.9897L26.7357 15.282L26.028 14.5755L25.3215 15.2832L26.0293 15.9897ZM23.5306 9.13848L34.2761 19.9033L35.6916 18.4903L24.9461 7.72554L23.5306 9.13848ZM24.9474 6.31133L23.5319 7.72427L24.9449 9.13975L26.3603 7.72681L24.9474 6.31133ZM37.1071 17.0774L26.3616 6.3126L24.9461 7.72554L35.6916 18.4903L37.1071 17.0774ZM35.6903 19.9045L37.1058 18.4916L35.6928 17.0761L34.2774 18.489L35.6903 19.9045ZM34.8113 0.880539C33.6393 -0.293513 31.7369 -0.293513 30.565 0.88054L31.9804 2.29351C32.3711 1.90216 33.0052 1.90216 33.3959 2.29351L34.8113 0.880539ZM42.5336 8.61635L34.8113 0.880539L33.3959 2.29351L41.1181 10.0293L42.5336 8.61635ZM42.5336 12.8553C43.7027 11.6841 43.7027 9.78749 42.5336 8.61635L41.1181 10.0293C41.5078 10.4197 41.5078 11.0519 41.1181 11.4423L42.5336 12.8553ZM17.6601 37.7723L42.5336 12.8553L41.1181 11.4423L16.2447 36.3594L17.6601 37.7723ZM17.4769 37.9559L17.6601 37.7723L16.2447 36.3594L16.0615 36.5429L17.4769 37.9559ZM16.795 38.2822L17.0444 38.2108L16.494 36.288L16.2447 36.3594L16.795 38.2822ZM4.00568 41.9427L16.795 38.2822L16.2447 36.3594L3.45535 40.0199L4.00568 41.9427ZM2.27516 42.438L4.00568 41.9427L3.45535 40.0199L1.72484 40.5152L2.27516 42.438ZM1.53205 39.4713L1.03835 41.2023L2.96165 41.7508L3.45535 40.0199L1.53205 39.4713ZM5.18614 26.6595L1.53205 39.4713L3.45535 40.0199L7.10945 27.2081L5.18614 26.6595ZM5.25716 26.4106L5.18614 26.6595L7.10945 27.2081L7.18046 26.9591L5.25716 26.4106ZM5.69399 25.7951L5.51108 25.9784L6.92654 27.3913L7.10945 27.2081L5.69399 25.7951ZM30.565 0.880539L5.69399 25.7951L7.10945 27.2081L31.9804 2.29351L30.565 0.880539ZM31.9804 3.70649L39.7027 11.4423L41.1181 10.0293L33.3959 2.29351L31.9804 3.70649ZM8.70781 28.4378L33.3959 3.70649L31.9804 2.29351L7.29236 27.0249L8.70781 28.4378ZM5.87235 38.8374L8.96174 28.0056L7.03844 27.4571L3.94905 38.2889L5.87235 38.8374ZM15.445 34.5079L4.63553 37.6018L5.18586 39.5246L15.9954 36.4307L15.445 34.5079ZM39.7027 10.0293L15.0125 34.7628L16.4279 36.1758L41.1181 11.4423L39.7027 10.0293ZM3.83057 36.0505L7.41239 39.6387L8.82787 38.2258L5.24606 34.6375L3.83057 36.0505ZM5.24733 33.2233L3.83185 34.6362L5.24479 36.0517L6.66027 34.6388L5.24733 33.2233ZM10.2434 36.8128L6.66154 33.2246L5.24606 34.6375L8.82787 38.2258L10.2434 36.8128ZM8.8266 39.64L10.2421 38.227L8.82915 36.8116L7.41366 38.2245L8.8266 39.64ZM13.8252 32.4622L28.1525 18.1091L26.737 16.6962L12.4098 31.0492L13.8252 32.4622ZM10.9955 31.0505L12.411 32.4634L13.824 31.048L12.4085 29.635L10.9955 31.0505ZM25.3215 15.2832L10.9943 29.6363L12.4098 31.0492L26.737 16.6962L25.3215 15.2832ZM28.1512 16.6949L26.7357 15.282L25.3228 16.6975L26.7383 18.1104L28.1512 16.6949Z" fill="#444444"/>
</svg>
