<svg width="42" height="43" viewBox="0 0 42 43" fill="none" xmlns="http://www.w3.org/2000/svg">
<path d="M5.45459 8.27591V7.27591H4.45459V8.27591H5.45459ZM36.5455 8.27591H37.5455V7.27591H36.5455V8.27591ZM36.5455 41.5292V42.5292H37.5455V41.5292H36.5455ZM5.45459 41.5292H4.45459V42.5292H5.45459V41.5292ZM7.45459 39.5292H6.45459V40.5292H7.45459V39.5292ZM7.45459 10.2759V9.27591H6.45459V10.2759H7.45459ZM34.5455 39.5292V40.5292H35.5455V39.5292H34.5455ZM34.5455 10.2759H35.5455V9.27591H34.5455V10.2759ZM1 10.2759H0V11.2759H1V10.2759ZM41 10.2759V11.2759H42V10.2759H41ZM1 8.27592V7.27592H0V8.27592H1ZM41 8.27592H42V7.27592H41V8.27592ZM14.5454 1.33075V0.33075H13.5454V1.33075H14.5454ZM27.4545 1.33075H28.4545V0.33075H27.4545V1.33075ZM27.4545 10.2759V11.2759H28.4545V10.2759H27.4545ZM14.5454 10.2759H13.5454V11.2759H14.5454V10.2759ZM16.5454 8.27593H15.5454V9.27593H16.5454V8.27593ZM16.5454 3.33075V2.33075H15.5454V3.33075H16.5454ZM25.4545 8.27593V9.27593H26.4545V8.27593H25.4545ZM25.4545 3.33075H26.4545V2.33075H25.4545V3.33075ZM14.5454 1.33075V0.33075H13.5454V1.33075H14.5454ZM27.4545 1.33075H28.4545V0.33075H27.4545V1.33075ZM27.4545 10.2759V11.2759H28.4545V10.2759H27.4545ZM14.5454 10.2759H13.5454V11.2759H14.5454V10.2759ZM16.5454 8.27593H15.5454V9.27593H16.5454V8.27593ZM16.5454 3.33075V2.33075H15.5454V3.33075H16.5454ZM25.4545 8.27593V9.27593H26.4545V8.27593H25.4545ZM25.4545 3.33075H26.4545V2.33075H25.4545V3.33075ZM25.4545 16.2211V15.2211H24.4545V16.2211H25.4545ZM25.4545 33.5841H24.4545V34.5841H25.4545V33.5841ZM27.4545 16.2211H28.4545V15.2211H27.4545V16.2211ZM27.4545 33.5841V34.5841H28.4545V33.5841H27.4545ZM14.5455 16.2211V15.2211H13.5455V16.2211H14.5455ZM14.5455 33.5841H13.5455V34.5841H14.5455V33.5841ZM16.5455 16.2211H17.5455V15.2211H16.5455V16.2211ZM16.5455 33.5841V34.5841H17.5455V33.5841H16.5455ZM6.45459 7.27591H5.45459V9.27591H6.45459V7.27591ZM35.5455 7.27591H6.45459V9.27591H35.5455V7.27591ZM36.5455 7.27591H35.5455V9.27591H36.5455V7.27591ZM37.5455 9.27591V8.27591H35.5455V9.27591H37.5455ZM37.5455 40.5292V9.27591H35.5455V40.5292H37.5455ZM37.5455 41.5292V40.5292H35.5455V41.5292H37.5455ZM35.5455 42.5292H36.5455V40.5292H35.5455V42.5292ZM6.45459 42.5292H35.5455V40.5292H6.45459V42.5292ZM5.45459 42.5292H6.45459V40.5292H5.45459V42.5292ZM4.45459 40.5292V41.5292H6.45459V40.5292H4.45459ZM4.45459 9.27591V40.5292H6.45459V9.27591H4.45459ZM4.45459 8.27591V9.27591H6.45459V8.27591H4.45459ZM8.45459 39.5292V10.2759H6.45459V39.5292H8.45459ZM34.5455 38.5292H7.45459V40.5292H34.5455V38.5292ZM33.5455 10.2759V39.5292H35.5455V10.2759H33.5455ZM7.45459 11.2759H34.5455V9.27591H7.45459V11.2759ZM1 11.2759H41V9.27592H1V11.2759ZM0 8.27592V10.2759H2V8.27592H0ZM41 7.27592H1V9.27592H41V7.27592ZM42 10.2759V8.27592H40V10.2759H42ZM15.5454 0.33075H14.5454V2.33075H15.5454V0.33075ZM26.4545 0.33075H15.5454V2.33075H26.4545V0.33075ZM27.4545 0.33075H26.4545V2.33075H27.4545V0.33075ZM28.4545 2.33075V1.33075H26.4545V2.33075H28.4545ZM28.4545 9.27593V2.33075H26.4545V9.27593H28.4545ZM28.4545 10.2759V9.27593H26.4545V10.2759H28.4545ZM26.4545 11.2759H27.4545V9.27593H26.4545V11.2759ZM15.5454 11.2759H26.4545V9.27593H15.5454V11.2759ZM14.5454 11.2759H15.5454V9.27593H14.5454V11.2759ZM13.5454 9.27593V10.2759H15.5454V9.27593H13.5454ZM13.5454 2.33075V9.27593H15.5454V2.33075H13.5454ZM13.5454 1.33075V2.33075H15.5454V1.33075H13.5454ZM17.5454 8.27593V3.33075H15.5454V8.27593H17.5454ZM25.4545 7.27593H16.5454V9.27593H25.4545V7.27593ZM24.4545 3.33075V8.27593H26.4545V3.33075H24.4545ZM16.5454 4.33075H25.4545V2.33075H16.5454V4.33075ZM15.5454 0.33075H14.5454V2.33075H15.5454V0.33075ZM26.4545 0.33075H15.5454V2.33075H26.4545V0.33075ZM27.4545 0.33075H26.4545V2.33075H27.4545V0.33075ZM28.4545 2.33075V1.33075H26.4545V2.33075H28.4545ZM28.4545 9.27593V2.33075H26.4545V9.27593H28.4545ZM28.4545 10.2759V9.27593H26.4545V10.2759H28.4545ZM26.4545 11.2759H27.4545V9.27593H26.4545V11.2759ZM15.5454 11.2759H26.4545V9.27593H15.5454V11.2759ZM14.5454 11.2759H15.5454V9.27593H14.5454V11.2759ZM13.5454 9.27593V10.2759H15.5454V9.27593H13.5454ZM13.5454 2.33075V9.27593H15.5454V2.33075H13.5454ZM13.5454 1.33075V2.33075H15.5454V1.33075H13.5454ZM17.5454 8.27593V3.33075H15.5454V8.27593H17.5454ZM25.4545 7.27593H16.5454V9.27593H25.4545V7.27593ZM24.4545 3.33075V8.27593H26.4545V3.33075H24.4545ZM16.5454 4.33075H25.4545V2.33075H16.5454V4.33075ZM24.4545 16.2211V33.5841H26.4545V16.2211H24.4545ZM27.4545 15.2211H25.4545V17.2211H27.4545V15.2211ZM28.4545 33.5841V16.2211H26.4545V33.5841H28.4545ZM25.4545 34.5841H27.4545V32.5841H25.4545V34.5841ZM13.5455 16.2211V33.5841H15.5455V16.2211H13.5455ZM16.5455 15.2211H14.5455V17.2211H16.5455V15.2211ZM17.5455 33.5841V16.2211H15.5455V33.5841H17.5455ZM14.5455 34.5841H16.5455V32.5841H14.5455V34.5841Z" fill="#444444"/>
</svg>
